<?xml version="1.0" encoding="UTF-8" standalone="no"?><svg width="23" height="24" viewBox="0 0 23 24" fill="none" xmlns="http://www.w3.org/2000/svg">
<path d="M21.0832 4.3324C20.3357 4.77611 18.8359 5.38081 17.9542 5.55523C17.9283 5.56194 17.9073 5.57056 17.8823 5.57727C17.1032 4.80869 16.0356 4.3324 14.854 4.3324C12.4725 4.3324 10.5415 6.26344 10.5415 8.6449C10.5415 8.77044 10.531 9.0014 10.5415 9.12406C7.32821 9.12406 4.88255 7.44123 3.1288 5.29073C2.93809 5.7699 2.85471 6.52698 2.85471 7.23806C2.85471 8.58069 3.90409 9.89936 5.53805 10.7168C5.23713 10.7944 4.90555 10.85 4.56055 10.85C4.00375 10.85 3.41438 10.7034 2.87484 10.2587C2.87484 10.275 2.87484 10.2904 2.87484 10.3076C2.87484 12.184 4.86625 13.4615 6.63725 13.817C6.27788 14.0288 5.55338 14.0499 5.19975 14.0499C4.95059 14.0499 4.06892 13.9359 3.83317 13.8918C4.32575 15.4299 6.1025 16.2943 7.79588 16.325C6.47146 17.3638 5.55242 17.7491 2.84034 17.7491H1.9165C3.63 18.8473 5.81213 19.6667 7.99905 19.6667C15.1195 19.6667 19.1665 14.2396 19.1665 9.12406C19.1665 9.04165 19.1646 8.86915 19.1617 8.69569C19.1617 8.67844 19.1665 8.66215 19.1665 8.6449C19.1665 8.61902 19.1588 8.59411 19.1588 8.56823C19.156 8.4379 19.1531 8.31619 19.1502 8.25294C19.9073 7.70669 20.5638 7.02531 21.0832 6.24906C20.3884 6.55765 19.6428 6.76465 18.8598 6.85856C19.6591 6.3794 20.7947 5.23706 21.0832 4.3324Z" fill="white"/>
</svg>
