<?xml version="1.0" encoding="UTF-8" standalone="no"?><svg width="32" height="32" viewBox="0 0 32 32" fill="none" xmlns="http://www.w3.org/2000/svg">
<path d="M4.21202 7.10825L7.57241 3.75097C7.80946 3.51288 8.0912 3.32397 8.40147 3.1951C8.71174 3.06622 9.04442 2.99992 9.38039 3C10.0651 3 10.7088 3.2682 11.1915 3.75097L14.8075 7.36699C15.0456 7.60404 15.2345 7.88579 15.3634 8.19607C15.4922 8.50634 15.5585 8.83903 15.5585 9.175C15.5585 9.85971 15.2903 10.5034 14.8075 10.9862L12.1634 13.6303C12.7823 14.9946 13.6428 16.2357 14.7034 17.2937C15.7613 18.3568 17.0022 19.2205 18.3667 19.8432L21.0108 17.199C21.2478 16.9609 21.5296 16.772 21.8399 16.6432C22.1501 16.5143 22.4828 16.448 22.8188 16.4481C23.5035 16.4481 24.1472 16.7163 24.6299 17.199L28.249 20.8119C28.4874 21.0494 28.6765 21.3317 28.8054 21.6425C28.9342 21.9533 29.0004 22.2866 29 22.6231C29 23.3078 28.7318 23.9515 28.249 24.4342L24.895 27.7883C24.1251 28.5614 23.0617 29 21.97 29C21.7397 29 21.5188 28.9811 21.3011 28.9432C17.0478 28.2427 12.8291 25.9803 9.42456 22.5789C6.02316 19.1806 3.76397 14.965 3.05403 10.699C2.83947 9.39587 3.27175 8.05485 4.21202 7.10825Z" fill="black"/>
</svg>
