<?xml version="1.0" encoding="UTF-8" standalone="no"?><svg width="23" height="24" viewBox="0 0 23 24" fill="none" xmlns="http://www.w3.org/2000/svg">
<path d="M7.66667 3.375C5.02071 3.375 2.875 5.52071 2.875 8.16667V15.8333C2.875 18.4793 5.02071 20.625 7.66667 20.625H15.3333C17.9793 20.625 20.125 18.4793 20.125 15.8333V8.16667C20.125 5.52071 17.9793 3.375 15.3333 3.375H7.66667ZM17.25 5.29167C17.779 5.29167 18.2083 5.721 18.2083 6.25C18.2083 6.779 17.779 7.20833 17.25 7.20833C16.721 7.20833 16.2917 6.779 16.2917 6.25C16.2917 5.721 16.721 5.29167 17.25 5.29167ZM11.5 7.20833C14.146 7.20833 16.2917 9.35404 16.2917 12C16.2917 14.646 14.146 16.7917 11.5 16.7917C8.85404 16.7917 6.70833 14.646 6.70833 12C6.70833 9.35404 8.85404 7.20833 11.5 7.20833ZM11.5 9.125C10.7375 9.125 10.0062 9.4279 9.46707 9.96707C8.9279 10.5062 8.625 11.2375 8.625 12C8.625 12.7625 8.9279 13.4938 9.46707 14.0329C10.0062 14.5721 10.7375 14.875 11.5 14.875C12.2625 14.875 12.9938 14.5721 13.5329 14.0329C14.0721 13.4938 14.375 12.7625 14.375 12C14.375 11.2375 14.0721 10.5062 13.5329 9.96707C12.9938 9.4279 12.2625 9.125 11.5 9.125Z" fill="black"/>
</svg>
